<?xml version="1.0" encoding="UTF-8"?>
<svg version="1.1" xmlns="http://www.w3.org/2000/svg" width="600" height="600">
<path d="M0 0 C1.75795687 -0.00374123 3.51591208 -0.00834463 5.27386469 -0.01373065 C10.08275205 -0.02591776 14.89156963 -0.02570525 19.7004689 -0.02334189 C24.89563488 -0.02293263 30.09077882 -0.03398333 35.28593445 -0.04345703 C45.45661734 -0.06004491 55.62727704 -0.06556559 65.79797233 -0.06668179 C74.06939373 -0.0676334 82.3408075 -0.07174933 90.61222649 -0.07808304 C114.08518342 -0.09569011 137.55812209 -0.10492285 161.03108568 -0.10342209 C162.92783366 -0.10330222 162.92783366 -0.10330222 164.86289978 -0.10317993 C166.12895018 -0.10309817 167.39500059 -0.10301641 168.69941615 -0.10293217 C189.20810995 -0.10211962 209.71673024 -0.12125085 230.22540278 -0.14945666 C251.30509449 -0.17821802 272.3847504 -0.19199514 293.46446222 -0.19026911 C305.29039677 -0.18960629 317.11625427 -0.19505112 328.9421711 -0.21662521 C339.01277309 -0.2348799 349.08326311 -0.23914925 359.15387452 -0.22560637 C364.28625963 -0.21909811 369.4184302 -0.2188817 374.5507946 -0.23631287 C379.26075448 -0.25214401 383.97033153 -0.24907849 388.68028264 -0.2317446 C390.37272765 -0.22869664 392.06520195 -0.23222263 393.75761236 -0.24346475 C422.83759136 -0.42364449 448.0909325 9.94640899 469.0252533 30.26742554 C480.2070107 41.48490222 487.48058894 54.3335714 492.5877533 69.26742554 C492.84719868 69.98974202 493.10664407 70.7120585 493.37395144 71.45626336 C496.1996505 80.32081791 496.01275031 89.11001825 495.98216248 98.30055237 C495.98705683 100.12593326 495.99324915 101.95131106 496.00062037 103.77668363 C496.01697409 108.77188509 496.01471125 113.76692825 496.0092454 118.76214707 C496.00656954 124.15769441 496.0211175 129.55320009 496.03334045 134.94873047 C496.05437376 145.51178741 496.05893648 156.07478944 496.05715257 166.63786485 C496.05584378 175.22681263 496.05965504 183.81574332 496.06707764 192.40468788 C496.06917689 194.88088284 496.07127449 197.3570778 496.07337046 199.83327276 C496.07493575 201.68212726 496.07493575 201.68212726 496.07653266 203.56833235 C496.09542687 226.86939005 496.09438746 250.17041625 496.08756334 273.47147844 C496.08198958 294.77047048 496.10280764 316.0692977 496.1359238 337.36826714 C496.16968848 359.25478318 496.1848256 381.14124161 496.18020678 403.02778417 C496.17796476 415.30862351 496.18316602 427.58935164 496.20809937 439.87016869 C496.22914841 450.32658952 496.23266874 460.78283819 496.21379977 471.23926618 C496.20466392 476.56991652 496.20343297 481.90024615 496.22415543 487.2308712 C496.24294939 492.1196711 496.23826798 497.00788953 496.21560961 501.89666788 C496.21144502 503.65637075 496.21555098 505.41611894 496.22920555 507.17577376 C496.41426471 532.78762833 485.40525392 556.02835111 467.8377533 574.51742554 C455.08030159 586.6389918 436.80710297 599.61937683 418.69175816 599.53028107 C417.91098877 599.53438633 417.13021938 599.5384916 416.32579032 599.54272127 C413.70573673 599.55404322 411.08589403 599.55114908 408.46582031 599.54830933 C406.56979695 599.55347767 404.67377576 599.55950428 402.77775759 599.56631613 C397.56413637 599.5824509 392.35057023 599.58603498 387.13692701 599.58751106 C381.51500114 599.59121316 375.89310382 599.60630851 370.27119446 599.61978149 C357.97548415 599.64694692 345.67978689 599.65899779 333.38405156 599.66780281 C325.70491907 599.67332868 318.02579161 599.68180365 310.34666252 599.69081116 C289.08155728 599.71519787 267.81645735 599.73586596 246.55133915 599.74256134 C245.17650619 599.7430046 243.80167323 599.74344817 242.42684027 599.74389204 C241.04872862 599.74433332 239.67061697 599.74477429 238.29250532 599.74521494 C235.5278842 599.74610003 232.76326308 599.74699427 229.99864197 599.74789429 C229.31317819 599.74811307 228.62771441 599.74833185 227.921479 599.74855726 C205.70702961 599.75581473 183.4927109 599.78764083 161.27831153 599.83427501 C137.77861121 599.88351695 114.27901208 599.91089575 90.77925104 599.91329718 C77.97463895 599.9151294 65.17019793 599.92660146 52.36563301 599.9629364 C41.45999948 599.99377382 30.55458987 600.00395866 19.64892102 599.9874602 C14.08749547 599.97965915 8.52652061 599.98144671 2.96515083 600.00957489 C-2.13357254 600.03512648 -7.23150829 600.03259495 -12.33023114 600.00839347 C-14.16746079 600.00449199 -16.00474695 600.0105787 -17.84189736 600.02808219 C-41.46033415 600.23872615 -59.99201488 589.27634202 -76.7403717 573.00570679 C-93.3455816 555.44250402 -104.52007239 532.18513987 -104.54367447 507.76096249 C-104.5457271 507.03445599 -104.54777974 506.30794949 -104.54989457 505.55942765 C-104.55553968 503.13004002 -104.55411041 500.70070953 -104.5526886 498.27131653 C-104.55527366 496.50983762 -104.55828722 494.7483593 -104.561692 492.98688179 C-104.56974866 488.1498493 -104.57155083 483.31283165 -104.57228947 478.47579324 C-104.57414235 473.25746347 -104.58169088 468.03914137 -104.58842468 462.82081604 C-104.60199916 451.41156455 -104.60803138 440.00231657 -104.61243534 428.59305835 C-104.61519932 421.46687988 -104.61943696 414.34070277 -104.62393951 407.21452522 C-104.63613114 387.47803934 -104.64643059 367.74155453 -104.64981461 348.00506496 C-104.65003417 346.74219506 -104.65025374 345.47932516 -104.65047996 344.17818648 C-104.65069824 342.91232187 -104.65091651 341.64645726 -104.65114141 340.34223312 C-104.65158487 337.77717682 -104.65203143 335.21212051 -104.65248108 332.64706421 C-104.65270251 331.37471194 -104.65292394 330.10235968 -104.65315208 328.79145128 C-104.65709922 308.17958501 -104.67455118 287.56775411 -104.6978406 266.9559015 C-104.72156721 245.78595856 -104.73401706 224.61603337 -104.73518252 203.44607693 C-104.73609856 191.56321318 -104.74183286 179.68039552 -104.76000214 167.79754448 C-104.77542079 157.67807331 -104.78051316 147.55866248 -104.77226403 137.4391818 C-104.76836378 132.27899929 -104.76925666 127.11893823 -104.78332138 121.95877075 C-104.79609758 117.22794889 -104.79483022 112.49733925 -104.78273067 107.76651753 C-104.7807801 106.06191087 -104.78382225 104.35728899 -104.79257503 102.65270369 C-104.93330529 73.37448076 -94.33454547 48.59091273 -74.0372467 27.57992554 C-53.52844331 7.57681867 -28.05624683 -0.05683041 0 0 Z " fill="#FEFEFE" transform="translate(104.41224670410156,0.732574462890625)"/>
<path d="M0 0 C0.95543701 0.00990967 1.91087402 0.01981934 2.89526367 0.0300293 C10.27299573 0.22288263 17.57298673 0.93650547 24.1875 4.5 C24.5175 5.49 24.8475 6.48 25.1875 7.5 C26.49573776 8.2146581 27.83563313 8.87176582 29.1875 9.5 C38.67147696 15.97757079 45.82955399 23.85760017 48.625 35.25 C50.15040093 45.65960418 50.99283396 59.88933207 46.1875 69.5 C45.5275 69.5 44.8675 69.5 44.1875 69.5 C44.1875 70.16 44.1875 70.82 44.1875 71.5 C43.5275 71.5 42.8675 71.5 42.1875 71.5 C41.94773438 72.22058594 41.70796875 72.94117188 41.4609375 73.68359375 C40.00247908 76.9092027 38.21978512 78.97526832 35.8125 81.5625 C35.04164063 82.39910156 34.27078125 83.23570312 33.4765625 84.09765625 C32.72117188 84.89042969 31.96578125 85.68320313 31.1875 86.5 C30.53523437 87.22058594 29.88296875 87.94117188 29.2109375 88.68359375 C26.95681167 90.70708509 24.99239165 91.40707418 22.1875 92.5 C20.45836034 93.77887062 18.77113608 95.11592268 17.125 96.5 C14.24393353 98.91494631 11.63322761 100.97210231 8.1875 102.5 C8.1875 103.16 8.1875 103.82 8.1875 104.5 C6.90234375 105.7265625 6.90234375 105.7265625 5.125 107.125 C0.99612213 110.54630808 -2.36124909 114.41320405 -5.8125 118.5 C-6.29332031 119.03109375 -6.77414063 119.5621875 -7.26953125 120.109375 C-10.67231169 123.89649153 -13.6438932 127.95814367 -16.5625 132.125 C-16.95163574 132.67567139 -17.34077148 133.22634277 -17.74169922 133.79370117 C-19.90742587 136.93348444 -21.41115323 139.97115405 -22.8125 143.5 C-23.4725 143.83 -24.1325 144.16 -24.8125 144.5 C-25.84193172 146.60338709 -25.84193172 146.60338709 -26.75 149.125 C-27.84677669 152.01125445 -28.96620903 154.83891582 -30.2421875 157.65234375 C-32.30761728 162.43064488 -33.6136258 167.42943715 -35 172.4375 C-35.27263672 173.40751953 -35.54527344 174.37753906 -35.82617188 175.37695312 C-36.49253669 177.75014711 -37.1545278 180.12446817 -37.8125 182.5 C-38.4725 182.5 -39.1325 182.5 -39.8125 182.5 C-39.87308594 183.08007812 -39.93367188 183.66015625 -39.99609375 184.2578125 C-40.12177734 185.42957031 -40.12177734 185.42957031 -40.25 186.625 C-40.33121094 187.39070312 -40.41242188 188.15640625 -40.49609375 188.9453125 C-40.7133351 190.69933524 -40.99059822 192.44664199 -41.31738281 194.18359375 C-41.86337004 197.84073897 -42.00968945 201.42826288 -42.05078125 205.1171875 C-42.0605751 205.84294983 -42.07036896 206.56871216 -42.08045959 207.31646729 C-42.40576667 237.74188976 -39.58213499 268.97195001 -21.5703125 294.703125 C-19.8125 297.5 -19.8125 297.5 -19.8125 301.5 C-19.1525 301.5 -18.4925 301.5 -17.8125 301.5 C-16.47265625 303.23046875 -16.47265625 303.23046875 -14.875 305.6875 C-2.56517615 323.68461413 12.75550936 338.89440929 31.1875 350.5 C31.87287842 350.94746582 32.55825684 351.39493164 33.2644043 351.85595703 C36.81664727 354.14877218 39.99796141 356.03702849 44.125 357.125 C46.40234375 357.7265625 46.40234375 357.7265625 48.1875 358.5 C48.5175 359.49 48.8475 360.48 49.1875 361.5 C51.77345447 362.31127984 54.23306874 362.9477451 56.875 363.5 C62.12139838 364.62661512 66.35971788 366.08610894 71.1875 368.5 C92.50162279 373.86868109 116.06661742 374.2795063 137.75 371.1875 C138.575 371.06987305 139.4 370.95224609 140.25 370.83105469 C145.78492795 369.94264877 150.92415794 368.4092074 156.1875 366.5 C157.12078125 366.17257812 158.0540625 365.84515625 159.015625 365.5078125 C160.76661951 364.86954676 162.51500323 364.22410322 164.26171875 363.57421875 C166.21155316 362.85832494 168.17297873 362.17324285 170.14453125 361.51953125 C189.56586728 354.75260033 206.4709144 341.55040271 221.1875 327.5 C221.99316406 326.7471875 222.79882812 325.994375 223.62890625 325.21875 C232.59286437 316.6133502 239.34984473 306.60844907 245.55859375 295.921875 C246.09613281 295.12265625 246.63367188 294.3234375 247.1875 293.5 C247.8475 293.5 248.5075 293.5 249.1875 293.5 C249.44273437 292.55640625 249.44273437 292.55640625 249.703125 291.59375 C250.86746993 287.48138281 252.0175785 283.57814813 254.0625 279.8125 C257.29007947 273.74216784 259.09810896 267.02401692 261.1875 260.5 C261.69023438 259.05173828 261.69023438 259.05173828 262.203125 257.57421875 C266.79544126 243.23234217 267.55917131 229.00724909 267.5 214.0625 C267.49736145 213.23982635 267.4947229 212.41715271 267.49200439 211.56954956 C267.4793885 209.19328992 267.4559635 206.81750362 267.42578125 204.44140625 C267.41822311 203.72961212 267.41066498 203.01781799 267.40287781 202.28445435 C267.32722104 198.26252267 266.92017149 194.45212906 266.1875 190.5 C266.07553927 187.82189925 266.14124701 185.18267314 266.1875 182.5 C265.5275 182.5 264.8675 182.5 264.1875 182.5 C263.97996094 181.78199219 263.77242188 181.06398438 263.55859375 180.32421875 C262.68723286 177.396592 261.77840404 174.48333626 260.84570312 171.57470703 C260.40422513 170.18313432 259.97333852 168.78816018 259.55273438 167.39013672 C251.06237741 139.49593297 231.6526321 116.43780777 209.1875 98.5 C202.3869003 92.8988006 202.3869003 92.8988006 201.1875 90.5 C200.61 90.396875 200.0325 90.29375 199.4375 90.1875 C196.11717972 89.17295769 194.53230766 87.01637895 192.1875 84.5 C191.259375 83.63375 190.33125 82.7675 189.375 81.875 C187.1875 79.5 187.1875 79.5 187.1875 76.5 C186.1975 76.17 185.2075 75.84 184.1875 75.5 C182.90625 73.93359375 182.90625 73.93359375 181.6875 71.9375 C181.2853125 71.29683594 180.883125 70.65617187 180.46875 69.99609375 C177.11832381 63.4688915 175.70103204 57.97258775 175.875 50.625 C175.88700439 49.83561035 175.89900879 49.0462207 175.91137695 48.23291016 C176.12005504 39.59985314 176.8578297 32.5700549 181.96875 25.38671875 C183.29233587 23.50008517 183.29233587 23.50008517 184.01953125 21.1171875 C188.09674028 11.9809666 198.01209353 5.73154623 206.8203125 1.93359375 C211.37390432 0.2503249 215.55338428 0.00137954 220.375 0.0625 C221.61902588 0.07168457 221.61902588 0.07168457 222.88818359 0.08105469 C230.14119668 0.26360874 236.45624404 1.76601649 243.1875 4.5 C244.00476563 4.81195313 244.82203125 5.12390625 245.6640625 5.4453125 C253.69053194 8.72761444 260.10371764 13.38043068 266.1875 19.5 C268.40504059 21.47559487 270.67428927 23.38955171 272.9375 25.3125 C278.80644074 30.354467 284.54060703 35.52304466 290.1875 40.8125 C290.88069336 41.45743408 291.57388672 42.10236816 292.28808594 42.7668457 C296.89117916 47.10736499 301.11186109 51.6629178 305.1875 56.5 C305.68056641 57.08160889 306.17363281 57.66321777 306.68164062 58.26245117 C314.23796278 67.27240917 320.78479402 76.71451897 327.02148438 86.67333984 C328.5466931 89.06270578 330.17801466 91.3719791 331.8125 93.6875 C333.98669659 96.89881335 334.98493954 99.55007112 335.1875 103.5 C335.8475 103.5 336.5075 103.5 337.1875 103.5 C341.21434133 110.93097524 344.27651498 118.32129711 346.8359375 126.37109375 C348.56709003 131.77076601 350.58611039 137.06457447 352.60131836 142.36352539 C357.08481791 154.30779752 360.17764449 166.13051448 361.9375 178.75 C362.09909103 179.88571442 362.09909103 179.88571442 362.26394653 181.04437256 C364.09203351 194.23663643 364.65084464 207.31501182 364.625 220.625 C364.62504028 221.50031372 364.62508057 222.37562744 364.62512207 223.27746582 C364.58174381 239.42863991 364.58174381 239.42863991 362.6887207 247.29931641 C361.76530179 251.35372365 361.45770658 255.49152785 361.0625 259.625 C360.93294922 260.91664063 360.93294922 260.91664063 360.80078125 262.234375 C360.59197046 264.32248294 360.38909018 266.4111826 360.1875 268.5 C359.5275 268.5 358.8675 268.5 358.1875 268.5 C358.10040771 269.40733887 358.01331543 270.31467773 357.92358398 271.24951172 C356.83426709 280.94573852 354.58041819 289.41709055 351.25 298.625 C350.80154275 299.91104342 350.35427355 301.19750175 349.90820312 302.484375 C348.02530283 307.81598537 346.22675569 312.71182274 343.1875 317.5 C342.50347006 318.78255614 341.83539288 320.07381514 341.1875 321.375 C340.878125 321.99117188 340.56875 322.60734375 340.25 323.2421875 C339.43144297 324.98162118 338.68429702 326.7547818 337.96875 328.5390625 C331.72896342 343.17526191 322.40295572 357.27412477 312.56494141 369.74902344 C311.14071438 371.55947297 309.74860497 373.39211637 308.35546875 375.2265625 C293.37824881 394.6078391 275.49061294 411.54429607 255.078125 425.0625 C252.92871583 426.53434965 252.92871583 426.53434965 251.1875 429.5 C249.5792632 430.2036036 247.96659691 430.899001 246.33203125 431.5390625 C242.80064513 433.12143224 239.59435694 435.23473476 236.32421875 437.29296875 C234.1875 438.5 234.1875 438.5 232.1875 438.5 C232.1875 439.16 232.1875 439.82 232.1875 440.5 C226.58408777 443.35244123 220.9679045 446.02268379 215.1875 448.5 C213.57969139 449.30526917 211.97581674 450.11841959 210.375 450.9375 C202.31233389 454.97487703 194.38846339 457.85617029 185.61010742 459.92773438 C182.06761646 460.76576929 178.57740619 461.66071024 175.10546875 462.7578125 C154.24361519 469.29167162 132.86891023 469.77219129 111.1875 469.8125 C109.76405777 469.81801376 109.76405777 469.81801376 108.31185913 469.82363892 C98.41399738 469.84364886 88.60172378 469.61228968 78.75 468.60546875 C77.98719727 468.52823074 77.22439453 468.45099274 76.43847656 468.37141418 C71.84648637 467.84677751 67.62187433 466.85136021 63.1875 465.5 C61.25528128 465.03898109 59.31900963 464.59459092 57.37890625 464.16796875 C35.88794069 459.37510117 17.86208271 453.45464817 -1.421875 442.76953125 C-3.42666548 441.70489579 -5.39789604 440.78496984 -7.5 439.9375 C-17.83659639 435.45180723 -17.83659639 435.45180723 -19.8125 431.5 C-20.4725 431.335 -21.1325 431.17 -21.8125 431 C-22.4725 430.835 -23.1325 430.67 -23.8125 430.5 C-24.1425 429.84 -24.4725 429.18 -24.8125 428.5 C-25.91271484 428.06300781 -25.91271484 428.06300781 -27.03515625 427.6171875 C-48.60890864 418.93913801 -70.11244175 393.4008918 -83.44067383 375.29980469 C-85.11579105 373.10208906 -86.885039 370.99010499 -88.64453125 368.859375 C-93.1060677 363.30073942 -96.7618974 357.38364275 -100.375 351.25 C-101.02903809 350.14825439 -101.68307617 349.04650879 -102.35693359 347.91137695 C-108.64501985 337.23484521 -114.2200288 326.50998667 -118.671875 314.92578125 C-119.62900246 312.49094792 -119.62900246 312.49094792 -121.33203125 311.109375 C-123.65405188 308.58517315 -123.96779494 305.73753249 -124.75 302.4375 C-125.83000286 298.03006225 -126.9798782 293.82494149 -128.875 289.6875 C-131.2494877 284.20289901 -131.96105017 278.44794664 -132.77368164 272.56713867 C-133.27749174 268.07671519 -133.27749174 268.07671519 -135.8125 264.5 C-136.65294565 261.17293246 -136.98561121 257.74573568 -137.4140625 254.34375 C-137.544711 253.31600464 -137.6753595 252.28825928 -137.80996704 251.22937012 C-139.0010326 241.12888833 -139.26928187 231.10954692 -139.20361328 220.94775391 C-139.18749921 217.99985541 -139.2036063 215.05332704 -139.22265625 212.10546875 C-139.23949704 196.75429269 -139.09237824 180.08064938 -133.8125 165.5 C-133.50977421 164.02785568 -133.23527411 162.54956528 -132.9921875 161.06640625 C-131.76520521 154.67677039 -129.69182888 148.57329673 -127.60888672 142.42260742 C-126.93831516 140.4399102 -126.27906883 138.45370523 -125.62109375 136.46679688 C-122.27298536 126.43539997 -118.29028612 117.15660615 -113.25 107.875 C-111.11536045 103.94070607 -109.05122576 100.06994212 -107.3203125 95.9375 C-105.62097738 92.06336812 -103.55832017 88.65714408 -101.25 85.125 C-100.65155273 84.18333984 -100.65155273 84.18333984 -100.04101562 83.22265625 C-97.06905926 78.62827963 -97.06905926 78.62827963 -94.8125 77.5 C-94.544375 76.79101562 -94.27625 76.08203125 -94 75.3515625 C-92.49145517 71.72906999 -90.25059093 68.90522267 -87.8125 65.875 C-87.32700684 65.26470947 -86.84151367 64.65441895 -86.34130859 64.02563477 C-80.25251435 56.44870998 -73.69474974 49.36238755 -66.8125 42.5 C-65.57319101 41.22756267 -64.33501028 39.95402597 -63.09765625 38.6796875 C-54.49512406 29.87602798 -45.8365421 21.65923847 -35.8125 14.5 C-35.18569336 14.05011719 -34.55888672 13.60023437 -33.91308594 13.13671875 C-31.97508284 11.76004822 -30.02341052 10.40630776 -28.0625 9.0625 C-27.48483887 8.6610376 -26.90717773 8.2595752 -26.31201172 7.84594727 C-17.93360626 2.26702874 -10.06383749 -0.20147201 0 0 Z " fill="#015B32" transform="translate(189.8125,101.5)"/>
<path d="M0 0 C6.25185566 -0.30966353 11.57285358 0.57634378 17.48046875 2.48046875 C18.13217041 2.68494629 18.78387207 2.88942383 19.45532227 3.10009766 C23.45894246 4.5015501 24.52705439 5.57364004 26.35546875 9.23046875 C28.3528091 9.57938515 30.35317685 9.91119105 32.35546875 10.23046875 C41.58654836 17.1575679 47.49635031 27.16896134 50.35546875 38.23046875 C50.63736896 41.3268965 50.55980216 44.11438424 50.35546875 47.23046875 C51.01546875 47.23046875 51.67546875 47.23046875 52.35546875 47.23046875 C52.40115468 77.07418216 52.43651941 106.91789438 52.45759941 136.76163526 C52.46010064 140.28990208 52.4626893 143.81816883 52.46533203 147.34643555 C52.46585665 148.0488106 52.46638127 148.75118565 52.46692179 149.47484479 C52.47560976 160.82776024 52.49137083 172.18065531 52.50977434 183.53355869 C52.52851822 195.19421859 52.53944537 206.85486664 52.54364574 218.5155409 C52.54624857 225.06029432 52.5523482 231.60500161 52.56692886 238.14974022 C52.580555 244.31628666 52.58468122 250.48276817 52.58168411 256.64932823 C52.58223203 258.9062892 52.58617934 261.16325245 52.5938797 263.42020035 C52.69352411 294.14592273 52.69352411 294.14592273 46.35546875 303.23046875 C45.69546875 303.23046875 45.03546875 303.23046875 44.35546875 303.23046875 C44.10023438 303.96265625 43.845 304.69484375 43.58203125 305.44921875 C40.32510611 312.83434838 33.61949107 318.83718133 26.35546875 322.23046875 C25.69546875 322.23046875 25.03546875 322.23046875 24.35546875 322.23046875 C24.35546875 322.89046875 24.35546875 323.55046875 24.35546875 324.23046875 C10.09089273 329.15383551 -2.38569838 330.08135762 -16.64453125 324.23046875 C-17.84078125 323.83859375 -19.03703125 323.44671875 -20.26953125 323.04296875 C-31.44551843 317.04104971 -39.22852578 306.67826541 -43.8203125 295.04296875 C-46.03650261 287.48061388 -46.94070001 280.19188302 -46.91868591 272.3303833 C-46.92392259 271.3858938 -46.92915927 270.4414043 -46.93455464 269.46829391 C-46.9494523 266.33070671 -46.95025754 263.19328407 -46.95092773 260.05566406 C-46.95855645 257.79434437 -46.96698517 255.53302725 -46.97615051 253.27171326 C-46.99804043 247.14498553 -47.00688779 241.01830771 -47.01197696 234.8915453 C-47.01562905 231.05433633 -47.02187373 227.21714025 -47.02897835 223.37993622 C-47.04842641 212.72353846 -47.06494329 202.06715513 -47.06785488 191.4107399 C-47.06804245 190.73017205 -47.06823002 190.04960421 -47.06842327 189.34841309 C-47.06878949 187.96913608 -47.06915319 186.58985906 -47.06951439 185.21058205 C-47.0696972 184.52604603 -47.06988001 183.84151001 -47.07006836 183.13623047 C-47.07024891 182.45084307 -47.07042946 181.76545567 -47.07061548 181.05929896 C-47.07414867 169.98138334 -47.10112127 158.90366312 -47.13856625 147.82581511 C-47.1768396 136.40998526 -47.19557468 124.99429395 -47.19631439 113.57839084 C-47.19710304 107.18599935 -47.2056497 100.79385989 -47.23431206 94.4015274 C-47.26072252 88.37669012 -47.26257099 82.35230962 -47.24665642 76.32744026 C-47.24485968 74.13390916 -47.25136893 71.94035038 -47.26747513 69.74687767 C-47.38713059 52.37124109 -47.40388909 30.56729753 -34.64453125 17.23046875 C-34.08765625 16.59496094 -33.53078125 15.95945312 -32.95703125 15.3046875 C-23.67504098 5.27068413 -13.32446892 1.16121664 0 0 Z " fill="#FE6C1A" transform="translate(299.64453125,20.76953125)"/>
<path d="M0 0 C0.99 0.495 0.99 0.495 2 1 C4.11267573 7.5280632 4.2852379 14.3272574 4.24050903 21.12405396 C4.24221788 22.09223301 4.24392673 23.06041206 4.24568737 24.05792987 C4.24895927 27.27453712 4.23801666 30.49093178 4.22705078 33.70751953 C4.22648617 36.02423599 4.2268042 38.34095281 4.22793579 40.65766907 C4.22850835 46.92756966 4.21676958 53.19739334 4.20278788 59.4672761 C4.19026449 66.02691664 4.18910875 72.58655906 4.18673706 79.14620972 C4.18156514 90.14989552 4.16874937 101.15355446 4.15087891 112.15722656 C4.1324981 123.48697775 4.11835239 134.81672128 4.10986328 146.14648438 C4.10933783 146.8458011 4.10881239 147.54511783 4.10827102 148.26562597 C4.10566079 151.77417632 4.10313341 155.28272673 4.10064721 158.79127717 C4.07994113 187.86086971 4.04458926 216.93043448 4 246 C3.67 246 3.34 246 3 246 C3 169.11 3 92.22 3 13 C2.34 13 1.68 13 1 13 C0.67 8.71 0.34 4.42 0 0 Z " fill="#FEDFCE" transform="translate(349,55)"/>
<path d="M0 0 C0.99523035 3.10902914 0.94982848 5.00682422 0.07990456 8.1342535 C-1.12277897 13.0943535 -1.28975114 17.76529529 -1.2784729 22.85194397 C-1.2842653 23.80293439 -1.2900577 24.75392481 -1.29602563 25.73373312 C-1.31293642 28.89812603 -1.31589444 32.06237231 -1.31884766 35.22680664 C-1.32815198 37.50397088 -1.33832141 39.78113173 -1.34928894 42.05828857 C-1.376546 48.22490713 -1.39172568 54.39150289 -1.40471697 60.55816579 C-1.42036625 67.00840313 -1.44715077 73.45859406 -1.4727478 79.90879822 C-1.51419429 90.73012045 -1.54879768 101.55144159 -1.578125 112.37280273 C-1.60834174 123.51539944 -1.64270629 134.65797072 -1.68261719 145.80053711 C-1.68507874 146.48816858 -1.68754028 147.17580004 -1.69007643 147.88426883 C-1.70245163 151.33415382 -1.71490805 154.78403852 -1.72740483 158.23392308 C-1.83085879 186.82257943 -1.91995297 215.41126906 -2 244 C-2.33 244 -2.66 244 -3 244 C-3.06847607 214.21560453 -3.12154879 184.43121171 -3.15319599 154.64675445 C-3.15694799 151.12835375 -3.16083097 147.6099532 -3.16479492 144.09155273 C-3.16558185 143.39111906 -3.16636878 142.69068538 -3.16717956 141.96902644 C-3.18022424 130.63602809 -3.2038729 119.30307551 -3.23145839 107.97010428 C-3.25953872 96.33658504 -3.27595734 84.70309246 -3.28226548 73.06954092 C-3.28617584 66.53718574 -3.2953641 60.0049343 -3.31719017 53.47261238 C-3.33757253 47.32247244 -3.34383018 41.17247885 -3.33932304 35.02230835 C-3.34014745 32.76688784 -3.34610255 30.51146236 -3.35761642 28.25607109 C-3.37258766 25.17180185 -3.36893647 22.08808194 -3.36076355 19.00379944 C-3.36950207 18.11564216 -3.3782406 17.22748489 -3.38724393 16.31241375 C-3.34494013 10.38791956 -2.18921756 5.50072233 0 0 Z " fill="#FBEBE1" transform="translate(255,57)"/>
<path d="M0 0 C0.66 0 1.32 0 2 0 C3.77089317 10.04249495 4.34387621 19.75771642 4.31567383 29.93041992 C4.31251694 32.29978687 4.33606894 34.66789564 4.36132812 37.03710938 C4.40296353 47.65166357 3.18774832 57.61916319 1 68 C0.67 68 0.34 68 0 68 C-0.02749766 66.62511713 -0.0466164 65.25006609 -0.0625 63.875 C-0.07410156 63.10929687 -0.08570313 62.34359375 -0.09765625 61.5546875 C0 59 0 59 0.49780273 56.33178711 C1.06320789 52.58065236 1.14370122 48.919142 1.1328125 45.13671875 C1.13376923 44.38646927 1.13472595 43.63621979 1.13571167 42.86323547 C1.13638991 41.27560339 1.13456051 39.68796849 1.13037109 38.1003418 C1.12510093 35.7328423 1.13028467 33.36553986 1.13671875 30.99804688 C1.14077471 20.63221763 0.72389387 10.33980976 0 0 Z " fill="#A1C1B2" transform="translate(454,284)"/>
<path d="M0 0 C0.33 0 0.66 0 1 0 C0.99555878 0.66097183 0.99111755 1.32194366 0.98654175 2.00294495 C0.94221072 8.89753045 0.91209294 15.79207528 0.89013672 22.68676758 C0.88009445 25.25807338 0.86645805 27.8293678 0.84912109 30.40063477 C0.82479516 34.10175387 0.81349891 37.80272164 0.8046875 41.50390625 C0.79436493 42.64896133 0.78404236 43.79401642 0.77340698 44.97377014 C0.77259902 50.75339964 1.10146567 55.53956972 3 61 C4.05969606 67.35817633 4.1064947 73.56298703 4 80 C3.34 79.67 2.68 79.34 2 79 C1.11258447 75.72779783 0.81336278 72.32095753 0.390625 68.9609375 C0.2595636 67.93157074 0.1285022 66.90220398 -0.00653076 65.84164429 C-1.22545772 55.44713006 -1.38899228 45.13307864 -1.28125 34.67871094 C-1.24951241 31.57735326 -1.2401976 28.47650572 -1.234375 25.375 C-1.22522212 23.36718134 -1.21485189 21.35936777 -1.203125 19.3515625 C-1.19887512 18.44209869 -1.19462524 17.53263489 -1.19024658 16.59561157 C-1.12813469 10.99662132 -0.7026734 5.55590762 0 0 Z " fill="#83AF9B" transform="translate(52,287)"/>
<path d="M0 0 C0.66 0.33 1.32 0.66 2 1 C-4.13277166 7.84677418 -10.40730177 14.53102562 -16.875 21.0625 C-17.5047876 21.70517822 -18.1345752 22.34785645 -18.78344727 23.01000977 C-21.97993436 26.21330605 -24.93971831 28.89266749 -29 31 C-25.81287428 24.02236069 -20.09926909 18.95418923 -14.33203125 14.07421875 C-9.32917358 9.62444082 -4.69738109 4.7678418 0 0 Z " fill="#337B5A" transform="translate(140,127)"/>
<path d="M0 0 C0.66 0.33 1.32 0.66 2 1 C-17.23689956 22.2849345 -17.23689956 22.2849345 -26 28 C-24.56438314 24.81293058 -22.79733671 22.37830895 -20.5 19.75 C-19.8915625 19.04359375 -19.283125 18.3371875 -18.65625 17.609375 C-17 16 -17 16 -15 16 C-14.7525 15.4225 -14.505 14.845 -14.25 14.25 C-12.81700012 11.67060021 -11.21575324 9.93878408 -9 8 C-8.34 8 -7.68 8 -7 8 C-7 7.34 -7 6.68 -7 6 C-5.46875 4.4921875 -5.46875 4.4921875 -3.5 2.875 C-2.8503125 2.33617187 -2.200625 1.79734375 -1.53125 1.2421875 C-1.0259375 0.83226562 -0.520625 0.42234375 0 0 Z " fill="#B5CFC3" transform="translate(205,198)"/>
<path d="M0 0 C0.92321855 3.03905386 1.02162761 5.39994788 0.66015625 8.546875 C0.56669922 9.39121094 0.47324219 10.23554688 0.37695312 11.10546875 C0.22129883 12.41451172 0.22129883 12.41451172 0.0625 13.75 C-0.08735352 15.08224609 -0.08735352 15.08224609 -0.24023438 16.44140625 C-0.48715401 18.62840871 -0.74061635 20.81444667 -1 23 C-1.66 23 -2.32 23 -3 23 C-3.12117187 24.01320313 -3.24234375 25.02640625 -3.3671875 26.0703125 C-3.53613783 27.4219151 -3.70542669 28.77347542 -3.875 30.125 C-3.95363281 30.79015625 -4.03226563 31.4553125 -4.11328125 32.140625 C-4.64388026 36.30378644 -5.54186554 40.06671292 -7 44 C-8.37520651 40.17998192 -7.74051523 36.92473073 -7 33 C-6.505 32.505 -6.505 32.505 -6 32 C-5.57042042 29.8115935 -5.19549253 27.61241392 -4.84375 25.41015625 C-4.7365564 24.7504332 -4.62936279 24.09071014 -4.5189209 23.41099548 C-4.17543136 21.29543065 -3.83721278 19.17907378 -3.5 17.0625 C-3.16252238 14.94954448 -2.8238398 12.83682146 -2.4810791 10.72471619 C-2.16966956 8.80536672 -1.86304694 6.88524243 -1.55664062 4.96508789 C-1 2 -1 2 0 0 Z " fill="#4F8D71" transform="translate(551,347)"/>
<path d="M0 0 C0 0.66 0 1.32 0 2 C-0.99 2.33 -1.98 2.66 -3 3 C-4.61416944 4.55435472 -4.61416944 4.55435472 -6.1875 6.5 C-9.5217479 10.4385359 -12.94124397 14.28624332 -16.3984375 18.1171875 C-18.05722691 19.91539089 -18.05722691 19.91539089 -19 22 C-19.66 22 -20.32 22 -21 22 C-21.33 22.99 -21.66 23.98 -22 25 C-20.60730875 15.76937192 -13.48002023 8.23855112 -6.29296875 2.6796875 C-2.44208916 0 -2.44208916 0 0 0 Z " fill="#FF9052" transform="translate(280,27)"/>
<path d="M0 0 C4.18309772 6.27464657 3.12073497 14.70224166 3 22 C2.34 21.67 1.68 21.34 1 21 C-0.14654253 14.00609057 -0.10770323 7.07251199 0 0 Z " fill="#5A9479" transform="translate(53,345)"/>
<path d="M0 0 C0.66 0.33 1.32 0.66 2 1 C0.61240749 2.61130023 -0.78545623 4.21375841 -2.1875 5.8125 C-2.96480469 6.70582031 -3.74210937 7.59914063 -4.54296875 8.51953125 C-6.89417119 10.8931617 -9.06791184 12.43240047 -12 14 C-10.41332422 10.09714233 -7.86649519 7.66479018 -4.875 4.75 C-3.96492188 3.85796875 -3.05484375 2.9659375 -2.1171875 2.046875 C-1.41851562 1.37140625 -0.71984375 0.6959375 0 0 Z " fill="#3E8163" transform="translate(386,109)"/>
<path d="M0 0 C0.99 0.495 0.99 0.495 2 1 C4.00086026 7.2248986 4.20894383 13.52274137 4 20 C3.67 20 3.34 20 3 20 C3 17.69 3 15.38 3 13 C2.34 13 1.68 13 1 13 C0.67 8.71 0.34 4.42 0 0 Z " fill="#FEC19E" transform="translate(349,55)"/>
<path d="M0 0 C1.44715727 3.87186448 0.5441918 6.8232328 -0.4375 10.75 C-0.86869141 12.50570312 -0.86869141 12.50570312 -1.30859375 14.296875 C-1.53675781 15.18890625 -1.76492187 16.0809375 -2 17 C-2.33 17 -2.66 17 -3 17 C-3.34548714 10.66606918 -2.29342747 5.89738492 0 0 Z " fill="#FDD3BA" transform="translate(255,57)"/>
<path d="M0 0 C3.33193619 2.69728168 4.60371996 6.02060187 6 10 C5.578125 12.22265625 5.578125 12.22265625 5 14 C4.15675328 12.421924 3.32576082 10.8372958 2.5 9.25 C2.0359375 8.36828125 1.571875 7.4865625 1.09375 6.578125 C0 4 0 4 0 0 Z " fill="#96BBAA" transform="translate(441,249)"/>
<path d="M0 0 C1.25127906 3.54667178 0.72285053 5.72253438 -0.4375 9.25 C-0.72496094 10.14203125 -1.01242187 11.0340625 -1.30859375 11.953125 C-1.53675781 12.62859375 -1.76492188 13.3040625 -2 14 C-3.15431591 10.05102453 -2.80958981 7.04794905 -2 3 C-1.34 2.01 -0.68 1.02 0 0 Z " fill="#71A38C" transform="translate(546,377)"/>
<path d="M0 0 C1.45606519 4.52092968 0.27032841 7.51648796 -1 12 C-1.33 12 -1.66 12 -2 12 C-2.05422947 10.5629191 -2.09289723 9.12524538 -2.125 7.6875 C-2.14820313 6.88699219 -2.17140625 6.08648437 -2.1953125 5.26171875 C-2 3 -2 3 0 0 Z " fill="#6DA089" transform="translate(153,272)"/>
<path d="M0 0 C0.625 1.8125 0.625 1.8125 1 4 C0.01 5.485 0.01 5.485 -1 7 C-1.66 7 -2.32 7 -3 7 C-3.33 7.99 -3.66 8.98 -4 10 C-3.43454163 6.04179141 -2.19097652 3.3340947 0 0 Z " fill="#FFA877" transform="translate(262,42)"/>
</svg>
