<?xml version="1.0" encoding="UTF-8"?>
<svg version="1.1" xmlns="http://www.w3.org/2000/svg" width="600" height="600">
<path d="M0 0 C8.72283428 5.96475715 14.55456607 14.40076115 16.86328125 24.71484375 C18.18226181 35.74260901 16.05836226 45.80245764 9.48828125 54.83984375 C5.04629089 60.03613436 -0.3233384 63.7173224 -5.96484375 67.48828125 C-8.68836011 69.40010923 -10.80555501 71.37298659 -13.13671875 73.71484375 C-13.79671875 73.71484375 -14.45671875 73.71484375 -15.13671875 73.71484375 C-15.13671875 74.37484375 -15.13671875 75.03484375 -15.13671875 75.71484375 C-15.79671875 75.71484375 -16.45671875 75.71484375 -17.13671875 75.71484375 C-17.63171875 77.19984375 -17.63171875 77.19984375 -18.13671875 78.71484375 C-19.8003344 80.05198193 -21.46747396 81.38473947 -23.13671875 82.71484375 C-45.70683374 109.55174726 -51.65529832 137.47777714 -50.13671875 171.71484375 C-49.64185094 176.84680621 -48.54028701 181.75644374 -47.13671875 186.71484375 C-46.94335938 187.545 -46.75 188.37515625 -46.55078125 189.23046875 C-42.97685719 203.2476774 -35.16511162 217.9370121 -25.69921875 228.77734375 C-23.13671875 231.71484375 -23.13671875 231.71484375 -23.13671875 233.71484375 C-22.47671875 233.71484375 -21.81671875 233.71484375 -21.13671875 233.71484375 C-19.70678711 235.23632812 -19.70678711 235.23632812 -18.0390625 237.30859375 C-14.34124148 241.64706488 -10.34071915 244.93431622 -5.69921875 248.21484375 C-4.91571045 248.77236328 -4.13220215 249.32988281 -3.32495117 249.90429688 C21.986825 267.51515072 51.76360582 274.38088684 82.11328125 269.02734375 C101.20617806 265.35053279 119.26831319 257.79476322 133.86328125 244.71484375 C135.10464844 243.65136719 135.10464844 243.65136719 136.37109375 242.56640625 C158.40792742 223.35999159 172.64241849 197.11314445 174.86328125 167.71484375 C176.37954386 136.10522784 169.22296966 109.38643671 148.86328125 84.71484375 C147.69805575 83.48501643 146.5143452 82.27199781 145.30078125 81.08984375 C144.09421875 79.91421875 144.09421875 79.91421875 142.86328125 78.71484375 C142.86328125 78.05484375 142.86328125 77.39484375 142.86328125 76.71484375 C142.33476562 76.49570313 141.80625 76.2765625 141.26171875 76.05078125 C137.98524384 74.22577405 135.29627254 71.79845363 132.48828125 69.33984375 C128.43545183 65.79835262 124.35717273 62.69813036 119.86328125 59.71484375 C113.06042666 53.51360215 108.28429481 44.5814262 107.625 35.39453125 C107.36858029 22.24964692 110.58502773 13.38524455 119.67578125 3.8046875 C127.68634251 -3.80211563 135.80956308 -5.93765366 146.62280273 -5.74487305 C165.01937226 -4.9093122 180.33449101 10.36284735 192.86328125 22.71484375 C193.4145166 23.25238281 193.96575195 23.78992188 194.53369141 24.34375 C205.40792511 34.95765448 205.40792511 34.95765448 207.86328125 38.71484375 C207.86328125 39.37484375 207.86328125 40.03484375 207.86328125 40.71484375 C208.52328125 40.71484375 209.18328125 40.71484375 209.86328125 40.71484375 C211.04907227 42.02148437 211.04907227 42.02148437 212.3671875 43.87109375 C212.85598389 44.55526367 213.34478027 45.23943359 213.84838867 45.94433594 C214.36892822 46.69360352 214.88946777 47.44287109 215.42578125 48.21484375 C215.96372314 48.98731445 216.50166504 49.75978516 217.0559082 50.55566406 C245.73479399 92.32773304 256.08340313 141.72232624 247.10131836 191.48364258 C240.85850627 224.4261319 226.20570588 256.52398252 203.86328125 281.71484375 C203.20328125 281.71484375 202.54328125 281.71484375 201.86328125 281.71484375 C201.5904834 282.30998779 201.31768555 282.90513184 201.03662109 283.51831055 C186.92680841 309.93237311 145.29468788 329.51351263 118.17578125 337.86328125 C111.78837437 339.707248 105.35411411 341.28114721 98.86328125 342.71484375 C98.02087891 342.90546387 97.17847656 343.09608398 96.31054688 343.29248047 C73.85982373 348.14631571 48.25297515 347.42739443 25.86328125 342.71484375 C25.14897949 342.575625 24.43467773 342.43640625 23.69873047 342.29296875 C2.4293037 338.12306071 -19.01500858 329.6606751 -37.13671875 317.71484375 C-38.13832031 317.06 -39.13992187 316.40515625 -40.171875 315.73046875 C-47.21810562 310.99378928 -53.752866 305.85567008 -60.1640625 300.29296875 C-62.22736686 298.50350636 -64.29815353 296.73681915 -66.3984375 294.9921875 C-70.62926666 291.47353786 -70.62926666 291.47353786 -72.13671875 289.71484375 C-72.13671875 289.05484375 -72.13671875 288.39484375 -72.13671875 287.71484375 C-73.12671875 287.38484375 -74.11671875 287.05484375 -75.13671875 286.71484375 C-76.828125 284.88671875 -76.828125 284.88671875 -78.69921875 282.46484375 C-79.76076172 281.09199219 -79.76076172 281.09199219 -80.84375 279.69140625 C-81.60042969 278.70914062 -82.35710937 277.726875 -83.13671875 276.71484375 C-83.90371094 275.77382813 -84.67070312 274.8328125 -85.4609375 273.86328125 C-97.91348336 258.34271685 -106.9871722 241.23498591 -114.13671875 222.71484375 C-114.39533691 222.05742187 -114.65395508 221.4 -114.92041016 220.72265625 C-121.39868414 203.98599275 -125.23884431 184.98553328 -125.33984375 167.03515625 C-125.34839386 165.81770218 -125.34839386 165.81770218 -125.3571167 164.57565308 C-125.3665106 162.86294838 -125.37307818 161.15022607 -125.37695312 159.4375 C-125.3865634 156.88116702 -125.41760045 154.325673 -125.44921875 151.76953125 C-125.54345649 137.1772269 -123.69562629 123.18779631 -119.82421875 109.08984375 C-119.6125708 108.30826904 -119.40092285 107.52669434 -119.18286133 106.72143555 C-112.75822677 83.6614613 -101.72070955 62.67909568 -87.13671875 43.71484375 C-86.57879639 42.98700684 -86.02087402 42.25916992 -85.44604492 41.50927734 C-80.49321723 35.16832113 -75.15463667 29.38286352 -69.44921875 23.71484375 C-68.1336499 22.40555908 -68.1336499 22.40555908 -66.79150391 21.06982422 C-57.48544952 11.92442532 -47.7311537 3.84593239 -36.13671875 -2.28515625 C-35.22986328 -2.79369141 -35.22986328 -2.79369141 -34.3046875 -3.3125 C-23.47464369 -8.43258607 -9.81995084 -5.90633241 0 0 Z " fill="#136103" transform="translate(235.13671875,155.28515625)"/>
<path d="M0 0 C0.639375 0.598125 1.27875 1.19625 1.9375 1.8125 C1.9375 2.4725 1.9375 3.1325 1.9375 3.8125 C2.5975 3.8125 3.2575 3.8125 3.9375 3.8125 C5.33984375 5.578125 5.33984375 5.578125 6.875 8.0625 C7.37902344 8.85140625 7.88304687 9.6403125 8.40234375 10.453125 C13.22425342 21.00488661 13.37601743 31.76182173 13.34155273 43.12475586 C13.34726659 44.83940574 13.35423475 46.55405182 13.36235046 48.26869202 C13.38018409 52.89272934 13.37913215 57.51657588 13.37340808 62.14063716 C13.3703022 66.01465435 13.3764241 69.88863563 13.38244683 73.76264769 C13.39645806 82.90812081 13.39495896 92.05350046 13.38354492 101.19897461 C13.3720649 110.6046344 13.38614524 120.010009 13.4129414 129.41563123 C13.43515692 137.51963894 13.44172269 145.62355751 13.43586498 153.72759348 C13.43250845 158.5552352 13.43482338 163.38269414 13.45211601 168.21030998 C13.46767694 172.75200753 13.4635291 177.29328515 13.44481087 181.83496666 C13.44115027 183.49206212 13.44415874 185.14918934 13.45469666 186.80625534 C13.54079679 201.47650611 11.49310207 214.71425932 1.08984375 225.77734375 C-6.02518113 232.46801327 -15.34348208 236.68595872 -25.20703125 236.84765625 C-37.05434347 235.9724494 -46.10839803 231.5889512 -54.0625 222.8125 C-63.34871911 211.75934702 -63.5077329 199.19938837 -63.46655273 185.43017578 C-63.47226498 183.69596927 -63.47923252 181.9617665 -63.48735046 180.22756958 C-63.50520338 175.54562442 -63.50412829 170.86386749 -63.49840808 166.18189859 C-63.49530457 162.26071049 -63.5014216 158.33955793 -63.50744683 154.4183749 C-63.52146483 145.16121038 -63.5199537 135.9041382 -63.50854492 126.64697266 C-63.49706834 117.12488737 -63.51113791 107.60308389 -63.5379414 98.08103573 C-63.5601562 89.87938469 -63.56672272 81.67782173 -63.56086498 73.47614276 C-63.55750778 68.58924218 -63.5598277 63.70252215 -63.57711601 58.81564713 C-63.59267539 54.21733107 -63.58853074 49.61942981 -63.56981087 45.02112961 C-63.56614963 43.34307174 -63.56916064 41.66498252 -63.57969666 39.98695374 C-63.66433252 25.38123515 -61.72541153 12.3242898 -51.5078125 1.10546875 C-36.23894116 -13.32324938 -16.00826456 -11.43447468 0 0 Z " fill="#FE6600" transform="translate(323.0625,99.1875)"/>
<path d="M0 0 C0.33 0 0.66 0 1 0 C1.00054477 0.90022731 1.00108953 1.80045462 1.00165081 2.72796154 C1.01664366 24.67216111 1.05919169 46.61615809 1.13209057 68.56024456 C1.16668592 79.17242907 1.19208893 89.78448441 1.19555664 100.39672852 C1.19860413 109.6505976 1.21919988 118.90423633 1.26052457 128.1580165 C1.28178512 133.05404812 1.29449101 137.94975281 1.28615379 142.84583092 C1.27856952 147.46299573 1.29461277 152.07950053 1.32806015 156.69654465 C1.33624101 158.38263696 1.33610589 160.06879556 1.32659721 161.75488091 C1.26244273 174.39128223 2.88240024 186.09860833 11.1953125 196.28515625 C15.97776634 200.82952256 21.89181435 203.66996127 28 206 C28 206.33 28 206.66 28 207 C19.32445114 206.29179193 13.79290777 202.45995035 7.859375 196.2734375 C-1.03506883 185.39829819 -1.2937183 173.18192197 -1.24291992 159.796875 C-1.24399404 158.153523 -1.24593464 156.51017136 -1.24867249 154.86682129 C-1.25350331 150.42058096 -1.24588701 145.97444162 -1.23571944 141.5282135 C-1.22690835 136.86614098 -1.22869699 132.20407134 -1.2290802 127.54199219 C-1.22814484 119.71417562 -1.21947839 111.8863979 -1.20581055 104.05859375 C-1.19008643 95.01996762 -1.18481254 85.98138403 -1.1855461 76.94274521 C-1.18622264 67.30358433 -1.17927546 57.66443976 -1.1700995 48.02528381 C-1.16797254 45.25493304 -1.16725891 42.48458491 -1.16686058 39.7142334 C-1.16585275 35.35412553 -1.15972028 30.99405307 -1.14969444 26.63395691 C-1.1467848 25.03765581 -1.14554095 23.44135064 -1.14612198 21.845047 C-1.14661645 19.65870518 -1.14092035 17.47246096 -1.13371277 15.28613281 C-1.13203692 14.06500793 -1.13036108 12.84388306 -1.12863445 11.58575439 C-0.98781146 7.66023789 -0.53942713 3.88912807 0 0 Z " fill="#A85C00" transform="translate(261,126)"/>
<path d="M0 0 C3.14637496 2.58419845 4.01718109 5.39056862 5.3125 9.1875 C9.23557905 19.63356846 13.96969459 25.00869113 24 30 C25.65826734 30.687293 27.32282751 31.36022297 29 32 C29 32.33 29 32.66 29 33 C20.32694059 32.29199515 14.78166225 28.46336747 8.859375 22.265625 C3.44171747 15.66427759 1.18961209 8.34504002 0 0 Z " fill="#B85200" transform="translate(260,300)"/>
<path d="M0 0 C4.95 0 9.9 0 15 0 C15 0.66 15 1.32 15 2 C4.44191344 3.51708428 4.44191344 3.51708428 0 1 C0 0.67 0 0.34 0 0 Z " fill="#DF4D00" transform="translate(290,333)"/>
<path d="M0 0 C4.84659077 0.59104765 8.60748167 1.97944157 13 4 C13 4.33 13 4.66 13 5 C8.02693484 4.50269348 4.36200187 3.44697666 0 1 C0 0.67 0 0.34 0 0 Z " fill="#C95500" transform="translate(276,328)"/>
<path d="M0 0 C-0.33 0.66 -0.66 1.32 -1 2 C-3.32156597 2.40729228 -5.6568787 2.74438677 -8 3 C-8.33 2.34 -8.66 1.68 -9 1 C-2.25 -1.125 -2.25 -1.125 0 0 Z " fill="#EE6400" transform="translate(313,331)"/>
</svg>
