<?xml version="1.0" encoding="UTF-8"?>
<svg version="1.1" xmlns="http://www.w3.org/2000/svg" width="558" height="558">
<path d="M0 0 C1.5662292 -0.00302523 3.13245693 -0.00691656 4.69868207 -0.01159257 C8.97749381 -0.02183362 13.25622139 -0.01970071 17.5350399 -0.01541197 C22.15958931 -0.01293762 26.78411884 -0.02196774 31.40866089 -0.02944946 C40.45938962 -0.04217922 49.51008866 -0.04399227 58.56082484 -0.0416492 C65.92075395 -0.0398638 73.28067407 -0.04162044 80.64060211 -0.04587364 C81.68941815 -0.04646883 82.73823419 -0.04706402 83.81883253 -0.04767724 C85.94974969 -0.04888904 88.08066685 -0.05010318 90.211584 -0.05131962 C110.18246387 -0.06218871 130.15332683 -0.06003577 150.12420765 -0.05393478 C168.37486688 -0.04876729 186.6254727 -0.06001776 204.87612137 -0.07903299 C223.63588296 -0.09842813 242.3956193 -0.10666438 261.15539098 -0.10290974 C271.67950654 -0.1010001 282.20357666 -0.10346205 292.72768402 -0.11762428 C301.68798441 -0.12956048 310.64821141 -0.13091796 319.60851285 -0.11883412 C324.17544621 -0.11296089 328.74224548 -0.1118027 333.30916977 -0.12383652 C337.49895876 -0.13474777 341.68850253 -0.13153024 345.87828031 -0.11757483 C347.3849378 -0.11494223 348.89161484 -0.11724869 350.39825305 -0.1253107 C376.03669111 -0.25285724 400.12811764 8.04909412 419.35186768 25.26069641 C420.69184814 26.45952454 420.69184814 26.45952454 422.05889893 27.68257141 C439.11346676 43.80689009 451.5488193 67.8178354 452.48066884 91.53953296 C452.4833517 93.247878 452.4833517 93.247878 452.48608875 94.99073505 C452.48844098 95.63331285 452.49079321 96.27589065 452.49321672 96.93794051 C452.49985082 99.08186416 452.4994502 101.22572642 452.4990387 103.36965942 C452.50234082 104.92617261 452.50606712 106.48268494 452.51018018 108.03919619 C452.52016884 112.30982748 452.52391191 116.58044471 452.52656949 120.85108602 C452.53048191 125.46008165 452.54005964 130.06906625 452.54878235 134.67805481 C452.56852121 145.80620594 452.57861011 156.93435795 452.58751014 168.0625222 C452.59189763 173.30865683 452.59726328 178.55479046 452.60249901 183.8009243 C452.61950939 201.25041017 452.63400198 218.69989543 452.64124775 236.14938831 C452.64315751 240.67501641 452.64507786 245.2006445 452.64703369 249.72627258 C452.64751743 250.85103548 452.64800117 251.97579838 452.64849957 253.13464501 C452.65679398 271.34150961 452.68212181 289.54830839 452.71461437 307.75514428 C452.7477333 326.46619945 452.76570091 345.17722122 452.76889199 363.88830584 C452.77105271 374.38633126 452.77973694 384.8842607 452.80535316 395.38225746 C452.82712635 404.32574186 452.83507818 413.26910697 452.82538638 422.21261487 C452.82086068 426.76981139 452.8226263 431.32676213 452.84214783 435.88392448 C452.97582789 468.9470407 449.37426127 499.81009051 425.09796143 524.54975891 C424.19175049 525.44436829 423.28553955 526.33897766 422.35186768 527.26069641 C421.53846924 528.07280579 420.7250708 528.88491516 419.88702393 529.72163391 C400.34100482 548.28560019 375.08146313 555.58832321 348.72392273 555.52812195 C347.15983123 555.53186444 345.5957416 555.53646833 344.03165489 555.54185259 C339.75863903 555.55402426 335.48570181 555.55382904 331.21267259 555.55146384 C326.59419779 555.55105419 321.9757477 555.56210905 317.35728455 555.57157898 C308.3175842 555.58815846 299.27790994 555.59368716 290.23819565 555.59480374 C282.88544294 555.59575576 275.5326988 555.59987378 268.17994881 555.60620499 C247.30785523 555.62380992 226.43578218 555.63304516 205.56368112 555.63154404 C204.43957126 555.63146413 203.31546139 555.63138421 202.1572876 555.63130188 C201.03179609 555.63122012 199.90630458 555.63113836 198.74670727 555.63105412 C180.51746009 555.63024168 162.28829563 555.64937077 144.05907237 555.67757861 C125.31624565 555.706351 106.57345921 555.72011648 87.83060986 555.71839106 C77.31811819 555.71772861 66.80571321 555.72315706 56.2932415 555.74474716 C47.3406981 555.76301646 38.38828067 555.76725936 29.43572664 555.75372832 C24.87445686 555.74722727 20.31342838 555.74697696 15.75218201 555.76443481 C-20.01738693 555.89252997 -48.62508017 550.75698259 -75.33563232 524.88569641 C-88.05979004 511.83986055 -96.27090747 495.85776474 -100.64813232 478.26069641 C-100.82196117 477.59221782 -100.99579002 476.92373923 -101.17488641 476.23500371 C-102.98242072 468.42053135 -102.93066951 460.65877948 -102.90882874 452.68812561 C-102.91185311 451.11792197 -102.91574402 449.54771981 -102.9204213 447.97752023 C-102.93067337 443.68311709 -102.92852661 439.38879769 -102.92424071 435.09438777 C-102.92176837 430.45484318 -102.930794 425.81531849 -102.9382782 421.17578125 C-102.95101358 412.09383485 -102.9528203 403.01191804 -102.95047794 393.92996421 C-102.94869315 386.54521236 -102.95044786 379.16046947 -102.95470238 371.77571869 C-102.95529757 370.72370308 -102.95589276 369.67168746 -102.95650598 368.58779259 C-102.95771777 366.45043117 -102.9589319 364.31306974 -102.96014836 362.17570832 C-102.97101964 342.14048264 -102.96886348 322.1052738 -102.96276351 302.07004717 C-102.95759596 283.75721687 -102.96884628 265.44443979 -102.98786173 247.13162002 C-103.00725304 228.31200428 -103.01549378 209.4924137 -103.01173848 190.6727879 C-103.00982824 180.11347785 -103.01229661 169.55421308 -103.02645302 158.99491119 C-103.03838434 150.00454785 -103.03975215 141.01425765 -103.02766285 132.02389327 C-103.02178619 127.44088878 -103.02064105 122.85801798 -103.03266525 118.27502251 C-103.04356478 114.07167636 -103.04037267 109.86857486 -103.02640357 105.66523996 C-103.02376777 104.15251389 -103.02608768 102.63976839 -103.03413943 101.12706146 C-103.177185 72.22418345 -92.05407951 48.08080505 -72.21063232 27.51069641 C-52.37596653 8.16983972 -27.26807507 -0.07511254 0 0 Z " fill="#FEFEFD" transform="translate(104.64813232421875,0.7393035888671875)"/>
<path d="M0 0 C0.83917969 0.45890625 1.67835938 0.9178125 2.54296875 1.390625 C8.43641468 4.69861533 14.76283791 8.28851373 17 15 C17.433125 15.4125 17.86625 15.825 18.3125 16.25 C23.06238491 21.17580657 24.72918122 26.29452708 25 33 C25.09474609 34.58361328 25.09474609 34.58361328 25.19140625 36.19921875 C25.60572345 48.34806837 23.15323483 57.49605757 15.12890625 66.76171875 C10.4254995 71.70676842 5.38198641 75.75657263 -0.1875 79.6875 C-24.48767627 97.11217563 -46.77988923 124.86319288 -52.125 154.875 C-52.27195312 155.77992188 -52.41890625 156.68484375 -52.5703125 157.6171875 C-53 160 -53 160 -54 163 C-56.04983899 172.78536276 -56.21374536 182.59565294 -56.25 192.5625 C-56.259104 193.76825684 -56.26820801 194.97401367 -56.27758789 196.21630859 C-56.24405049 206.3090125 -55.91887065 216.5909763 -52 226 C-51.773125 227.258125 -51.54625 228.51625 -51.3125 229.8125 C-47.22937014 249.37200918 -34.54163836 267.93175836 -22 283 C-21.24589844 283.91007812 -20.49179688 284.82015625 -19.71484375 285.7578125 C-11.43651119 295.3432502 -1.52452691 303.01944644 9 310 C10.01320312 310.69222656 10.01320312 310.69222656 11.046875 311.3984375 C16.09612429 314.73094203 21.35619977 316.87172724 27 319 C28.60470653 319.66536612 30.20887214 320.33203831 31.8125 321 C47.21922264 327.12411197 61.80562661 329.35940557 78.26171875 329.31567383 C80.73222416 329.31252267 83.20151733 329.33602514 85.671875 329.36132812 C99.00091974 329.4153077 111.91525495 328.02909951 124.5 323.3125 C125.19665771 323.05758789 125.89331543 322.80267578 126.61108398 322.54003906 C143.21251334 316.27591357 159.9890941 307.38690649 172.8515625 295.05859375 C174.78777383 293.20335126 176.78536115 291.55097565 178.875 289.875 C192.70739015 277.71588286 202.33991616 260.51804088 210 244 C210.53625 242.88625 211.0725 241.7725 211.625 240.625 C213.55748757 235.53026005 214.7723065 230.30259106 216 225 C216.66 225 217.32 225 218 225 C218.06058594 224.15695312 218.12117188 223.31390625 218.18359375 222.4453125 C218.26738281 221.34960938 218.35117187 220.25390625 218.4375 219.125 C218.51871094 218.03445313 218.59992188 216.94390625 218.68359375 215.8203125 C219 213 219 213 220 211 C220.13594925 208.37796086 220.21214056 205.78383066 220.23828125 203.16015625 C220.2480751 202.37058029 220.25786896 201.58100433 220.26795959 200.76750183 C220.63830928 177.08859486 220.63830928 177.08859486 216 154 C215.77505859 153.23365234 215.55011719 152.46730469 215.31835938 151.67773438 C212.52972257 142.19022347 209.24279786 133.43865953 204 125 C203.47792969 124.12472656 202.95585937 123.24945313 202.41796875 122.34765625 C190.72022305 103.25320953 175.74478166 88.79735903 157.625 75.875 C152.38538583 71.98206852 146.07783213 66.70988455 145 60 C144.34 60 143.68 60 143 60 C137.3880906 46.77192785 137.17227973 33.18260644 142.1953125 19.7734375 C146.41971684 10.08737621 155.38261157 2.09120651 165 -2 C179.72010015 -6.76650862 192.31882481 -2.73445003 206 3 C206 3.66 206 4.32 206 5 C207.03060547 5.33837891 207.03060547 5.33837891 208.08203125 5.68359375 C211.70533035 7.31820124 214.61487938 9.58667685 217.6875 12.0625 C218.30109375 12.55057129 218.9146875 13.03864258 219.546875 13.54150391 C224.14332857 17.22994199 228.5606332 21.08749226 232.89453125 25.08203125 C234.61685185 26.65097265 236.36108928 28.11958759 238.1875 29.5625 C241.06642856 32.05757142 243.43238826 34.68326978 245.890625 37.58203125 C247.49235283 39.41808593 249.11450097 41.18970776 250.796875 42.94921875 C257.72039761 50.21118016 263.4568253 57.63736025 269 66 C270.28844365 67.77317975 271.5798684 69.54419923 272.875 71.3125 C275.76954611 75.40754911 277.34678777 79.28834515 279 84 C279.4434375 84.42667969 279.886875 84.85335937 280.34375 85.29296875 C282.77653603 87.80034492 284.19871135 90.78116129 285.75 93.875 C286.09635498 94.56392334 286.44270996 95.25284668 286.79956055 95.96264648 C290.81601451 104.25819334 293.48011415 112.98365524 296.23291016 121.75830078 C297.0336787 124.22889565 297.0336787 124.22889565 298.57421875 127.37109375 C300.2152143 131.54776462 300.83325056 135.50276826 301.49511719 139.92480469 C301.95592747 142.73155823 302.56562038 145.41540612 303.2890625 148.1640625 C306.76909543 161.99614058 307.47475981 175.24214033 307.4375 189.4375 C307.43735901 190.32197815 307.43721802 191.2064563 307.43707275 192.11773682 C307.39402266 208.55106097 306.5516665 224.62992923 301.75 240.4375 C301.28811279 242.01664185 301.28811279 242.01664185 300.81689453 243.62768555 C299.89498341 246.75720646 298.9505508 249.8790755 298 253 C297.72575195 253.91620117 297.45150391 254.83240234 297.16894531 255.77636719 C294.27758439 265.42022318 291.12578901 274.80060558 287 284 C286.6390625 284.83015625 286.278125 285.6603125 285.90625 286.515625 C284.05873814 290.7425082 282.10570888 294.89386769 280 299 C279.34 299 278.68 299 278 299 C277.75378906 299.67933594 277.50757813 300.35867188 277.25390625 301.05859375 C265.24055574 329.23944401 239.38493375 355.19899836 215 373 C214.154375 373.6290625 213.30875 374.258125 212.4375 374.90625 C206.9860497 378.85137851 201.26975203 382.30767327 195.47485352 385.71728516 C191.86992246 387.84377653 188.41112674 390.06847889 185 392.5 C181.28848493 395.04946576 178.48279607 395.80924272 174 396 C173.67 396.99 173.34 397.98 173 399 C170.65625 399.95703125 170.65625 399.95703125 167.5 400.8125 C163.04306289 402.07698162 158.75562583 403.44574637 154.42919922 405.11694336 C146.07986107 408.29476819 137.60478663 410.3773022 128.875 412.25 C127.73216553 412.4960498 126.58933105 412.74209961 125.41186523 412.99560547 C110.71634719 416.03605748 96.56589079 417.37323717 81.59545898 417.37060547 C78.83318825 417.37496733 76.07253599 417.4114001 73.31054688 417.44921875 C61.49680408 417.52226067 50.60523105 416.14842219 39.1078186 413.46929932 C36.00541447 412.7785586 32.88570261 412.26759979 29.75 411.75 C13.50972462 408.48776128 -2.26426679 402.49066438 -17 395 C-18.71703125 394.15888672 -18.71703125 394.15888672 -20.46875 393.30078125 C-28.39285714 389.4047619 -28.39285714 389.4047619 -32 387 C-32 386.34 -32 385.68 -32 385 C-32.85980469 384.75636719 -33.71960938 384.51273437 -34.60546875 384.26171875 C-38.32268019 382.88006248 -41.08141687 381.1046359 -44.3125 378.8125 C-44.88154053 378.4088623 -45.45058105 378.00522461 -46.03686523 377.58935547 C-47.69890496 376.40308958 -49.35114055 375.20449702 -51 374 C-51.79921875 373.41863281 -52.5984375 372.83726562 -53.421875 372.23828125 C-77.73203476 353.91693822 -98.32691018 329.76280408 -113.14453125 303.265625 C-114.62843959 300.65394633 -116.16708563 298.13512161 -117.8125 295.625 C-119.76917248 292.55672954 -121.01972059 289.52290824 -122.19921875 286.08984375 C-123.06483896 283.83078612 -124.15352719 281.81044385 -125.3125 279.6875 C-127.85364654 274.72878852 -129.57066682 269.60932695 -131.25 264.3125 C-131.50821533 263.50449951 -131.76643066 262.69649902 -132.0324707 261.86401367 C-133.45912774 257.24103677 -134.45926306 252.80869632 -135 248 C-135.66 248 -136.32 248 -137 248 C-137.4594254 245.27101312 -137.91774649 242.54185111 -138.375 239.8125 C-138.51147949 238.99910156 -138.64795898 238.18570313 -138.78857422 237.34765625 C-139.78498274 231.3762469 -140.70777912 225.39858719 -141.5703125 219.40625 C-141.8833249 216.99750231 -141.8833249 216.99750231 -143 215 C-143.09964047 213.54810081 -143.13830343 212.09177219 -143.14526367 210.63647461 C-143.15164352 209.73050034 -143.15802338 208.82452606 -143.16459656 207.89109802 C-143.16570938 206.90480911 -143.1668222 205.9185202 -143.16796875 204.90234375 C-143.17129715 203.88008194 -143.17462555 202.85782013 -143.17805481 201.80458069 C-143.18313025 199.6281072 -143.18546295 197.45162589 -143.18530273 195.27514648 C-143.18745691 192.00295359 -143.20551471 188.73111607 -143.22460938 185.45898438 C-143.2671786 170.23191416 -143.08584733 155.09831496 -138.5 140.4375 C-138.07194799 138.99898581 -137.64485703 137.56018527 -137.21875 136.12109375 C-136.91094604 135.0988269 -136.91094604 135.0988269 -136.59692383 134.0559082 C-135.63059909 130.72771983 -134.82238025 127.3665098 -134 124 C-131.0597243 112.14404959 -125.45354976 101.18801433 -119.359375 90.66015625 C-117.8670702 87.8958263 -117.8670702 87.8958263 -116.74609375 84.33203125 C-114.76976927 78.91461446 -111.54758498 74.36239357 -108.3125 69.625 C-107.68762695 68.69977539 -107.06275391 67.77455078 -106.41894531 66.82128906 C-94.94734036 49.97367018 -94.94734036 49.97367018 -91 48 C-90.566875 47.278125 -90.13375 46.55625 -89.6875 45.8125 C-86.32588574 40.20980956 -82.21115085 36.22005342 -77.28125 32.03515625 C-74.68413787 29.71821204 -72.29464862 27.25148968 -69.875 24.75 C-53.08129857 7.66172391 -24.64458917 -15.50455707 0 0 Z " fill="#156305" transform="translate(195,103)"/>
<path d="M0 0 C9.55519477 7.42320405 15.27177549 16.57189946 16.92578125 28.49609375 C17.06672513 31.42272844 17.06510634 34.34498529 17.05949402 37.27459717 C17.06175958 38.14654826 17.06402513 39.01849936 17.06635934 39.91687322 C17.0726784 42.83229101 17.07187132 45.74766206 17.07104492 48.66308594 C17.07403774 50.75609395 17.07744056 52.84910142 17.08122253 54.94210815 C17.09005481 60.62406422 17.09240034 66.30600522 17.09303832 71.98796749 C17.09374933 75.5396204 17.09588463 79.09126949 17.09853554 82.64292145 C17.10778681 95.03864281 17.11187075 107.43435342 17.11108398 119.83007812 C17.11048343 131.37594865 17.12103139 142.92177241 17.13682765 154.4676311 C17.14991416 164.3871491 17.1552674 174.30665184 17.15462857 184.22617841 C17.15437389 190.14755475 17.1572088 196.06888954 17.16780663 201.99025726 C17.17750611 207.56182035 17.17755406 213.13330233 17.17028999 218.70486832 C17.16924642 220.74539687 17.17159353 222.78593052 17.17765045 224.82645035 C17.18540563 227.62094659 17.18070232 230.41516519 17.17301941 233.20965576 C17.17816297 234.00909756 17.18330654 234.80853937 17.18860596 235.63220668 C17.10816949 248.95417148 13.07871259 261.13205159 3.67578125 270.8125 C-2.32922429 276.33354951 -2.32922429 276.33354951 -5.22265625 276.96484375 C-5.83367187 277.14015625 -6.4446875 277.31546875 -7.07421875 277.49609375 C-7.75339457 278.82309881 -8.42004171 280.15658838 -9.07421875 281.49609375 C-16.63017053 284.01474434 -24.18054736 283.76828932 -32.07421875 283.49609375 C-32.81800781 283.48964844 -33.56179688 283.48320312 -34.328125 283.4765625 C-44.75128691 282.88903563 -53.05681671 276.1994529 -59.91796875 268.9609375 C-60.62953125 268.14753906 -61.34109375 267.33414062 -62.07421875 266.49609375 C-62.78191406 265.69300781 -63.48960937 264.88992188 -64.21875 264.0625 C-66.24871141 261.25474285 -67.23083466 258.79492284 -68.26171875 255.49609375 C-68.74705078 253.98015625 -68.74705078 253.98015625 -69.2421875 252.43359375 C-70.82246618 246.85439392 -71.22271506 241.68517925 -71.22138977 235.89599609 C-71.22506646 235.03109967 -71.22874315 234.16620325 -71.23253125 233.27509785 C-71.24354274 230.37740294 -71.24740766 227.47974393 -71.2512207 224.58203125 C-71.25748737 222.50388984 -71.26413435 220.42574955 -71.27113342 218.34761047 C-71.29215568 211.52211281 -71.30253553 204.69661497 -71.3125 197.87109375 C-71.31654853 195.51844267 -71.32066548 193.16579171 -71.32485008 190.81314087 C-71.34389935 179.75692111 -71.35812978 168.700708 -71.36646205 157.64447498 C-71.37622756 144.89800241 -71.40253041 132.15170381 -71.44296294 119.40529251 C-71.47316742 109.54349753 -71.48793512 99.68175228 -71.49124306 89.81991196 C-71.49358898 83.93469266 -71.50248971 78.04965927 -71.52770424 72.16448975 C-71.55106506 66.62241432 -71.55518595 61.08064616 -71.54494286 55.53853416 C-71.5444493 53.51215782 -71.55071613 51.48576594 -71.5644989 49.45943642 C-71.63568386 38.3669869 -71.25973077 28.91349422 -67.07421875 18.49609375 C-66.75296178 17.63283981 -66.43170481 16.76958588 -66.10071278 15.88017273 C-62.63997791 6.81958682 -55.34888774 -0.59366311 -47.07421875 -5.50390625 C-31.38784157 -12.03796587 -13.6262809 -9.70539723 0 0 Z " fill="#FE6701" transform="translate(304.07421875,36.50390625)"/>
<path d="M0 0 C-1.58431453 3.90851199 -4.26635095 6.52367356 -7.2265625 9.421875 C-7.73424164 9.92672424 -8.24192078 10.43157349 -8.76498413 10.95172119 C-10.38033842 12.55592096 -12.00252209 14.15300856 -13.625 15.75 C-14.72441698 16.83938107 -15.82338059 17.9292199 -16.921875 19.01953125 C-19.6093602 21.68501885 -22.30299021 24.34415143 -25 27 C-25.99 26.67 -26.98 26.34 -28 26 C-24.04810993 21.24538226 -19.98298272 16.99177955 -15.2578125 13.0078125 C-11.90036661 10.02212532 -8.78860219 6.79837159 -5.68066406 3.55541992 C-2.2142074 0 -2.2142074 0 0 0 Z " fill="#397A2B" transform="translate(133,122)"/>
<path d="M0 0 C7.75 0.875 7.75 0.875 10 2 C13.3483379 2.24174992 16.70641107 2.18520915 20.0625 2.1875 C20.97966797 2.19974609 21.89683594 2.21199219 22.84179688 2.22460938 C28.86798427 2.23742196 34.16444177 1.51115275 40 0 C38 3 38 3 34.25 4.1875 C22.92227674 6.38350451 10.45502703 6.00970045 0 1 C0 0.67 0 0.34 0 0 Z " fill="#EB8E43" transform="translate(257,315)"/>
<path d="M0 0 C0.66 0.33 1.32 0.66 2 1 C0.92492371 2.29854721 -0.16043736 3.58858361 -1.25 4.875 C-1.85328125 5.59429687 -2.4565625 6.31359375 -3.078125 7.0546875 C-4.97087634 8.97052118 -6.53657727 9.96449045 -9 11 C-7.59155282 7.78475695 -5.89655214 5.67816132 -3.375 3.25 C-2.74335938 2.63640625 -2.11171875 2.0228125 -1.4609375 1.390625 C-0.73777344 0.70226562 -0.73777344 0.70226562 0 0 Z " fill="#468339" transform="translate(351,106)"/>
<path d="M0 0 C0.66 0.33 1.32 0.66 2 1 C0.35 2.98 -1.3 4.96 -3 7 C-3.99 6.67 -4.98 6.34 -6 6 C-4.02 4.02 -2.04 2.04 0 0 Z " fill="#FF893A" transform="translate(250,36)"/>
<path d="M0 0 C7.50769231 0.61538462 7.50769231 0.61538462 10 2.5625 C10.33 3.036875 10.66 3.51125 11 4 C7.1936543 3.32829194 3.64793184 2.27253436 0 1 C0 0.67 0 0.34 0 0 Z " fill="#DF924A" transform="translate(257,315)"/>
</svg>
